<?xml version="1.0" standalone="no"?>
<svg width="100%" height="100%" version="1.1"
xmlns="http://www.w3.org/2000/svg">
   <path  fill="ffffff" d  = "M 15,114L12,92L15,64L52,59L86,79L120,113L150,120L169,99L170,77L157,61L176,36L203,30L232,79L232,105L244,124L243,165L170,179L100,184L74,163L62,166L52,128L70,105L31,104L24,119L15,114L15,114L15,114"/> 
   <path  fill="ff7300" d  = "M 16,111L18,75L23,73L26,89L43,85L60,85L54,94L80,105L107,101L64,62L32,58L7,73L16,111L16,111L16,111"/> 
   <path  fill="ff7300" d  = "M 187,151L193,106L213,107L216,115L223,116L232,105L241,119L240,148L230,126L219,125L218,132L210,123L187,151L187,151L187,151"/> 
   <path  fill="ff7300" d  = "M 76,159L107,134L129,132L121,141L134,145L125,155L157,156L131,181L115,180L119,168L99,162L97,152L76,159L76,159L76,159"/> 
   <path  fill="b20000" d  = "M 175,60L167,75L167,105L150,115L132,111L110,85L75,52L30,46L1,60L0,86L15,125L19,108L24,73L46,64L33,83L73,77L67,91L97,104L73,102L53,129L56,142L59,160L83,136L126,127L103,154L122,147L110,160L136,160L126,180L96,169L75,171L119,193L147,226L161,203L169,214L187,186L231,177L246,167L247,139L241,116L237,144L223,132L223,148L213,129L193,151L205,115L211,108L181,77L175,60L175,60L175,60"/> 
   <path  fill="ffe500" d  = "M 142,227L158,260L171,260L175,212L171,213L163,247L152,227L142,227L142,227L142,227"/> 
   <path  fill="ff4d4d" d  = "M 211,63L232,39L218,9L205,22L198,4L189,18L178,6L176,28L158,13L140,16L156,36L131,31L122,34L138,44L139,57L162,68L175,52L201,40L208,52L200,67L185,52L184,78L200,99L223,117L231,90L211,63L211,63L211,63"/> 
   <path  fill="ffe500" d  = "M 212,63L230,52L249,69L246,82L212,63L212,63L212,63"/> 
   <path  fill="ccb800" d  = "M 220,67L225,61L247,74L244,79L220,67L220,67L220,67"/> 
   <path  fill="ff8080" d  = "M 219,53L232,42L221,17L218,39L205,31L193,35L181,44L166,32L166,49L153,55L136,53L160,69L172,52L202,42L204,48L219,53L219,53L219,53"/> 
   <path  fill="ff8080" d  = "M 188,80L190,61L197,82L221,102L227,89L220,76L232,85L232,100L223,117L211,102L187,90L188,80L188,80L188,80"/> 
   <path  fill="000000" d  = "M 190,63L183,73L185,90L209,108L213,119L226,118L235,105L232,84L229,102L221,115L214,102L189,86L190,63L190,63L190,63"/> 
   <path  fill="000000" d  = "M 229,102L244,116L252,142L249,172L215,191L188,193L173,223L166,223L166,210L156,231L145,233L124,188L148,222L146,192L169,191L173,204L182,183L200,183L205,152L210,165L214,145L226,168L241,163L246,134L229,102L229,102L229,102"/> 
   <path  fill="000000" d  = "M 187,122L181,147L151,151L145,147L163,134L131,142L131,128L95,147L83,165L92,178L110,186L161,175L119,194L85,181L69,163L87,140L132,118L143,128L156,121L146,120L163,107L169,86L170,118L187,122L187,122L187,122"/> 
   <path  fill="000000" d  = "M 127,107L67,49L21,50L2,70L12,127L23,125L27,132L35,107L63,107L50,120L54,149L80,135L61,137L61,122L94,104L56,102L38,91L23,114L12,82L23,61L60,59L43,77L65,67L95,83L83,92L110,97L127,107L127,107L127,107"/> 
   <path  fill="000000" d  = "M 152,245L153,255L136,264L159,265L171,284L170,268L195,268L174,258L201,256L184,252L188,246L174,250L172,235L167,249L155,235L166,259L159,258L152,245L152,245L152,245"/> 
   <path  fill="000000" d  = "M 231,24L218,2L207,14L199,3L184,17L178,5L173,26L157,11L137,18L157,42L149,20L162,18L181,36L181,20L189,23L196,12L205,24L216,11L231,39L214,51L200,44L190,49L198,63L204,50L216,61L236,42L231,24L231,24L231,24"/> 
   <path  fill="000000" d  = "M 141,35L126,34L134,42L135,59L161,74L176,49L158,64L141,54L140,42L156,40L141,35L141,35L141,35"/> 
   <path  fill="000000" d  = "M 208,67L207,83L221,95L217,75L236,79L248,89L253,71L236,56L246,72L244,78L223,67L208,67L208,67L208,67"/> 
</svg>

