<?xml version="1.0" encoding="UTF-8" standalone="no"?>
<!-- Created with Inkscape (http://www.inkscape.org/) -->

<svg
   xmlns:dc="http://purl.org/dc/elements/1.1/"
   xmlns:cc="http://creativecommons.org/ns#"
   xmlns:rdf="http://www.w3.org/1999/02/22-rdf-syntax-ns#"
   xmlns:svg="http://www.w3.org/2000/svg"
   xmlns="http://www.w3.org/2000/svg"
   xmlns:sodipodi="http://sodipodi.sourceforge.net/DTD/sodipodi-0.dtd"
   xmlns:inkscape="http://www.inkscape.org/namespaces/inkscape"
   width="536.28125"
   height="508.84378"
   id="svg2"
   version="1.1"
   inkscape:version="0.48.1 "
   sodipodi:docname="bot.svg"
   inkscape:export-filename="\\arcdroid\share\InkScape\bot.png"
   inkscape:export-xdpi="160.06877"
   inkscape:export-ydpi="160.06877">
  <defs
     id="defs4" />
  <sodipodi:namedview
     id="base"
     pagecolor="#ffffff"
     bordercolor="#666666"
     borderopacity="1.0"
     inkscape:pageopacity="0.0"
     inkscape:pageshadow="2"
     inkscape:zoom="1.0160289"
     inkscape:cx="114.60169"
     inkscape:cy="254.42189"
     inkscape:document-units="px"
     inkscape:current-layer="layer1"
     showgrid="false"
     inkscape:window-width="1366"
     inkscape:window-height="706"
     inkscape:window-x="-8"
     inkscape:window-y="-8"
     inkscape:window-maximized="1"
     fit-margin-top="0"
     fit-margin-left="0"
     fit-margin-right="0"
     fit-margin-bottom="0" />
  <metadata
     id="metadata7">
    <rdf:RDF>
      <cc:Work
         rdf:about="">
        <dc:format>image/svg+xml</dc:format>
        <dc:type
           rdf:resource="http://purl.org/dc/dcmitype/StillImage" />
        <dc:title></dc:title>
      </cc:Work>
    </rdf:RDF>
  </metadata>
  <g
     inkscape:label="Layer 1"
     inkscape:groupmode="layer"
     id="layer1"
     transform="translate(-66.15625,-155.375)">
    <path
       style="fill:#00ff00;fill-opacity:1;fill-rule:nonzero;stroke:#1a1a1a;stroke-width:10;stroke-linecap:round;stroke-linejoin:round;stroke-miterlimit:4;stroke-opacity:1"
       d="m 206.18021,160.37677 257.92537,0 c 47.1026,0 85.02274,37.92014 85.02274,85.02274 l 0,255.06823 c 0,47.1026 -37.92014,85.02274 -85.02274,85.02274 l -257.92537,0 c -47.1026,0 -85.02275,-37.92014 -85.02275,-85.02274 l 0,-255.06823 c 0,-47.1026 37.92015,-85.02274 85.02275,-85.02274 z"
       id="rect3809"
       inkscape:connector-curvature="0" />
    <path
       sodipodi:type="arc"
       style="fill:#00ff00;fill-opacity:1;fill-rule:nonzero;stroke:#1a1a1a;stroke-width:10;stroke-linecap:round;stroke-linejoin:round;stroke-miterlimit:4;stroke-opacity:1;stroke-dasharray:none"
       id="path3755"
       sodipodi:cx="170"
       sodipodi:cy="615.2193"
       sodipodi:rx="64.285713"
       sodipodi:ry="60"
       d="m 234.28571,615.2193 c 0,33.13708 -28.78169,60 -64.28571,60 -35.50402,0 -64.28571,-26.86292 -64.28571,-60 0,-33.13709 28.78169,-60 64.28571,-60 35.50402,0 64.28571,26.86291 64.28571,60 z"
       transform="translate(21.714286,-16.285714)" />
    <path
       transform="translate(164.42858,-16.285688)"
       sodipodi:type="arc"
       style="fill:#00ff00;fill-opacity:1;fill-rule:nonzero;stroke:#1a1a1a;stroke-width:10;stroke-linecap:round;stroke-linejoin:round;stroke-miterlimit:4;stroke-opacity:1;stroke-dasharray:none"
       id="path3755-1"
       sodipodi:cx="170"
       sodipodi:cy="615.2193"
       sodipodi:rx="64.285713"
       sodipodi:ry="60"
       d="m 234.28571,615.2193 c 0,33.13708 -28.78169,60 -64.28571,60 -35.50402,0 -64.28571,-26.86292 -64.28571,-60 0,-33.13709 28.78169,-60 64.28571,-60 35.50402,0 64.28571,26.86291 64.28571,60 z" />
    <path
       d="m 234.28571,615.2193 c 0,33.13708 -28.78169,60 -64.28571,60 -35.50402,0 -64.28571,-26.86292 -64.28571,-60 0,-33.13709 28.78169,-60 64.28571,-60 35.50402,0 64.28571,26.86291 64.28571,60 z"
       sodipodi:ry="60"
       sodipodi:rx="64.285713"
       sodipodi:cy="615.2193"
       sodipodi:cx="170"
       id="path3775-7"
       style="fill:#00ff00;fill-opacity:1;fill-rule:nonzero;stroke:#1a1a1a;stroke-width:10;stroke-linecap:round;stroke-linejoin:round;stroke-miterlimit:4;stroke-opacity:1;stroke-dasharray:none"
       sodipodi:type="arc"
       transform="translate(307.14285,-15.999974)" />
    <rect
       style="fill:#00ff00;fill-opacity:1;fill-rule:nonzero;stroke:#1a1a1a;stroke-width:10;stroke-linecap:round;stroke-linejoin:round;stroke-miterlimit:4;stroke-opacity:1;stroke-dasharray:none"
       id="rect3797"
       width="74.285713"
       height="185.71428"
       x="523.14288"
       y="300.93362"
       ry="37.142857" />
    <rect
       ry="37.142857"
       y="300.93362"
       x="75.142883"
       height="185.71428"
       width="74.285713"
       id="rect3799"
       style="fill:#00ff00;fill-opacity:1;fill-rule:nonzero;stroke:#1a1a1a;stroke-width:10;stroke-linecap:round;stroke-linejoin:round;stroke-miterlimit:4;stroke-opacity:1;stroke-dasharray:none" />
    <path
       style="fill:#000000;fill-opacity:1;fill-rule:nonzero;stroke:#000000;stroke-width:10;stroke-linecap:round;stroke-linejoin:round;stroke-miterlimit:4;stroke-opacity:1"
       d="m 227.14286,406.07648 c 68.57143,85.7357 137.14286,96.9775 205.71429,0 1.37077,-1.93862 4.28572,1.91143 4.28572,4.28571 0,2.37429 -1.91143,4.28572 -4.28572,4.28572 l -205.71429,0 c -2.37428,0 -4.28571,-1.91143 -4.28571,-4.28572 0,-2.37428 2.80273,-6.13989 4.28571,-4.28571 z"
       id="rect3807"
       inkscape:connector-curvature="0"
       sodipodi:nodetypes="sssssss" />
    <path
       sodipodi:type="arc"
       style="opacity:0.90384617000000000;fill:#000000;fill-opacity:0;stroke:none"
       id="path2990"
       sodipodi:cx="183.55777"
       sodipodi:cy="140.25191"
       sodipodi:rx="31.003054"
       sodipodi:ry="32.9715"
       d="m 214.56082,140.25191 a 31.003054,32.9715 0 1 1 -62.0061,0 31.003054,32.9715 0 1 1 62.0061,0 z"
       transform="translate(66.15625,155.375)" />
    <path
       sodipodi:type="arc"
       style="opacity:0.90384617;fill:#000000;fill-opacity:0;stroke:none"
       id="path2992"
       sodipodi:cx="227.35573"
       sodipodi:cy="157.96794"
       sodipodi:rx="35.43206"
       sodipodi:ry="28.050383"
       d="m 262.78779,157.96794 a 35.43206,28.050383 0 1 1 -70.86412,0 35.43206,28.050383 0 1 1 70.86412,0 z"
       transform="translate(66.15625,155.375)" />
    <path
       sodipodi:type="arc"
       style="fill:#000000;fill-opacity:1;stroke:none"
       id="path3764"
       sodipodi:cx="360.71808"
       sodipodi:cy="214.06871"
       sodipodi:rx="23.129263"
       sodipodi:ry="23.129263"
       d="m 383.84734,214.06871 a 23.129263,23.129263 0 1 1 -46.25852,0 23.129263,23.129263 0 1 1 46.25852,0 z"
       transform="matrix(1.1702128,0,0,1.1702128,-163.54486,53.978996)" />
    <path
       transform="matrix(1.1702128,0,0,1.1702128,-25.54486,53.978996)"
       d="m 383.84734,214.06871 a 23.129263,23.129263 0 1 1 -46.25852,0 23.129263,23.129263 0 1 1 46.25852,0 z"
       sodipodi:ry="23.129263"
       sodipodi:rx="23.129263"
       sodipodi:cy="214.06871"
       sodipodi:cx="360.71808"
       id="path3766"
       style="fill:#000000;fill-opacity:1;stroke:none"
       sodipodi:type="arc" />
  </g>
</svg>
